<svg width="38" height="38" viewBox="0 0 38 38" fill="none" xmlns="http://www.w3.org/2000/svg" class="iconify iconify--logos">
<g filter="url(#filter0_d_0_1)">
<path d="M4 15C4 6.71573 10.7157 0 19 0V0C27.2843 0 34 6.71573 34 15V15C34 23.2843 27.2843 30 19 30V30C10.7157 30 4 23.2843 4 15V15Z" fill="#293A78" shape-rendering="crispEdges"/>
<path d="M22.0358 10.9554C22.0358 13.1399 20.4608 14.9108 18.5179 14.9108C16.575 14.9108 15 13.1399 15 10.9554C15 8.77089 16.575 7 18.5179 7C20.4608 7 22.0358 8.77089 22.0358 10.9554Z" fill="white"/>
<rect x="15.8443" y="14.9108" width="1.40717" height="7.11969" fill="#E75656"/>
<path d="M18.3772 15.5436L20.3156 15.7249L23 22.1976L21.0616 22.0163L18.3772 15.5436Z" fill="#131212"/>
</g>
<defs>
<filter id="filter0_d_0_1" x="0" y="0" width="38" height="38" filterUnits="userSpaceOnUse" color-interpolation-filters="sRGB">
<feFlood flood-opacity="0" result="BackgroundImageFix"/>
<feColorMatrix in="SourceAlpha" type="matrix" values="0 0 0 0 0 0 0 0 0 0 0 0 0 0 0 0 0 0 127 0" result="hardAlpha"/>
<feOffset dy="4"/>
<feGaussianBlur stdDeviation="2"/>
<feComposite in2="hardAlpha" operator="out"/>
<feColorMatrix type="matrix" values="0 0 0 0 0 0 0 0 0 0 0 0 0 0 0 0 0 0 0.25 0"/>
<feBlend mode="normal" in2="BackgroundImageFix" result="effect1_dropShadow_0_1"/>
<feBlend mode="normal" in="SourceGraphic" in2="effect1_dropShadow_0_1" result="shape"/>
</filter>
</defs>
</svg>
