{
  "accessors": [
    {
      "bufferView": 2,
      "componentType": 5126,
      "count": 192,
      "max": [
        5.5,
        12.855890274047852,
        2.5000009536743164
      ],
      "min": [
        -5.500000953674316,
        -1.8558909893035889,
        -3.0
      ],
      "type": "VEC3"
    },
    {
      "bufferView": 2,
      "byteOffset": 2304,
      "componentType": 5126,
      "count": 192,
      "max": [
        0.9984644055366516,
        0.755913257598877,
        0.5847861766815186
      ],
      "min": [
        -0.9998588562011719,
        -0.6563997864723206,
        -0.6182838082313538
      ],
      "type": "VEC3"
    },
    {
      "bufferView": 3,
      "componentType": 5126,
      "count": 192,
      "max": [
        0.7332445979118347,
        1.0,
        0.4703916013240814,
        1.0
      ],
      "min": [
        -0.7316219806671143,
        0.654671847820282,
        -0.3878270387649536,
        -1.0
      ],
      "type": "VEC4"
    },
    {
      "bufferView": 1,
      "componentType": 5126,
      "count": 192,
      "max": [
        0.9952600002288818,
        0.500855028629303
      ],
      "min": [
        0.5113930106163025,
        0.15651699900627136
      ],
      "type": "VEC2"
    },
    {
      "bufferView": 0,
      "componentType": 5125,
      "count": 720,
      "type": "SCALAR"
    },
    {
      "bufferView": 2,
      "byteOffset": 4608,
      "componentType": 5126,
      "count": 239,
      "max": [
        0.27912798523902893,
        12.0,
        0.2791300117969513
      ],
      "min": [
        -0.2791300117969513,
        11.998655319213867,
        -0.27912798523902893
      ],
      "type": "VEC3"
    },
    {
      "bufferView": 2,
      "byteOffset": 7476,
      "componentType": 5126,
      "count": 239,
      "max": [
        0.004999936558306217,
        1.0,
        0.004899940919131041
      ],
      "min": [
        -0.004999936558306217,
        0.9999867677688599,
        -0.004899940919131041
      ],
      "type": "VEC3"
    },
    {
      "bufferView": 1,
      "byteOffset": 1536,
      "componentType": 5126,
      "count": 239,
      "max": [
        0.9671099781990051,
        0.3618130087852478
      ],
      "min": [
        0.9670659899711609,
        0.32686299085617065
      ],
      "type": "VEC2"
    },
    {
      "bufferView": 0,
      "byteOffset": 2880,
      "componentType": 5125,
      "count": 288,
      "type": "SCALAR"
    },
    {
      "bufferView": 2,
      "byteOffset": 10344,
      "componentType": 5126,
      "count": 144,
      "max": [
        2.2900760173797607,
        11.97150993347168,
        2.2900779247283936
      ],
      "min": [
        -2.2900779247283936,
        11.909456253051758,
        -2.2900760173797607
      ],
      "type": "VEC3"
    },
    {
      "bufferView": 2,
      "byteOffset": 12072,
      "componentType": 5126,
      "count": 144,
      "max": [
        0.06159891188144684,
        0.9980839490890503,
        0.06159891188144684
      ],
      "min": [
        -0.06159891188144684,
        0.9980813264846802,
        -0.06159891188144684
      ],
      "type": "VEC3"
    },
    {
      "bufferView": 1,
      "byteOffset": 3448,
      "componentType": 5126,
      "count": 144,
      "max": [
        0.966172993183136,
        0.4877130091190338
      ],
      "min": [
        0.9641320109367371,
        0.20096300542354584
      ],
      "type": "VEC2"
    },
    {
      "bufferView": 0,
      "byteOffset": 4032,
      "componentType": 5125,
      "count": 240,
      "type": "SCALAR"
    },
    {
      "bufferView": 2,
      "byteOffset": 13800,
      "componentType": 5126,
      "count": 611,
      "max": [
        1.5000009536743164,
        -8.042945861816406,
        0.41858699917793274
      ],
      "min": [
        -2.149282932281494,
        -8.622945785522461,
        -0.3814130127429962
      ],
      "type": "VEC3"
    },
    {
      "bufferView": 2,
      "byteOffset": 21132,
      "componentType": 5126,
      "count": 611,
      "max": [
        1.0,
        1.0,
        1.0
      ],
      "min": [
        -1.0,
        -1.0,
        -1.0
      ],
      "type": "VEC3"
    },
    {
      "bufferView": 1,
      "byteOffset": 4600,
      "componentType": 5126,
      "count": 611,
      "max": [
        0.9654960036277771,
        1.0
      ],
      "min": [
        0.0,
        0.0
      ],
      "type": "VEC2"
    },
    {
      "bufferView": 0,
      "byteOffset": 4992,
      "componentType": 5125,
      "count": 1089,
      "type": "SCALAR"
    },
    {
      "bufferView": 2,
      "byteOffset": 28464,
      "componentType": 5126,
      "count": 232,
      "max": [
        2.524998903274536,
        11.95220947265625,
        2.525001049041748
      ],
      "min": [
        -2.525001049041748,
        11.909456253051758,
        -2.524998903274536
      ],
      "type": "VEC3"
    },
    {
      "bufferView": 2,
      "byteOffset": 31248,
      "componentType": 5126,
      "count": 232,
      "max": [
        0.40370938181877136,
        1.0,
        0.40370938181877136
      ],
      "min": [
        -0.40370938181877136,
        0.9140211939811707,
        -0.40370938181877136
      ],
      "type": "VEC3"
    },
    {
      "bufferView": 1,
      "byteOffset": 9488,
      "componentType": 5126,
      "count": 232,
      "max": [
        0.9655380249023438,
        0.5024200081825256
      ],
      "min": [
        0.9641320109367371,
        0.18625600636005402
      ],
      "type": "VEC2"
    },
    {
      "bufferView": 0,
      "byteOffset": 9348,
      "componentType": 5125,
      "count": 360,
      "type": "SCALAR"
    },
    {
      "bufferView": 2,
      "byteOffset": 34032,
      "componentType": 5126,
      "count": 389,
      "max": [
        4.999999046325684,
        12.000000953674316,
        5.000000953674316
      ],
      "min": [
        -5.000000953674316,
        10.999999046325684,
        -5.049999237060547
      ],
      "type": "VEC3"
    },
    {
      "bufferView": 2,
      "byteOffset": 38700,
      "componentType": 5126,
      "count": 389,
      "max": [
        0.9914475083351135,
        1.0,
        0.9914475083351135
      ],
      "min": [
        -0.9914475083351135,
        0.0,
        -0.9914475083351135
      ],
      "type": "VEC3"
    },
    {
      "bufferView": 1,
      "byteOffset": 11344,
      "componentType": 5126,
      "count": 389,
      "max": [
        0.9671099781990051,
        0.6573730111122131
      ],
      "min": [
        0.934220016002655,
        0.028172999620437622
      ],
      "type": "VEC2"
    },
    {
      "bufferView": 0,
      "byteOffset": 10788,
      "componentType": 5125,
      "count": 741,
      "type": "SCALAR"
    },
    {
      "bufferView": 2,
      "byteOffset": 43368,
      "componentType": 5126,
      "count": 2104,
      "max": [
        5.5,
        13.0,
        10.472676277160645
      ],
      "min": [
        -5.500000953674316,
        -17.404590606689453,
        -5.5
      ],
      "type": "VEC3"
    },
    {
      "bufferView": 2,
      "byteOffset": 68616,
      "componentType": 5126,
      "count": 2104,
      "max": [
        1.0,
        0.9716464281082153,
        0.9999996423721313
      ],
      "min": [
        -1.0,
        -1.0,
        -0.9999991655349731
      ],
      "type": "VEC3"
    },
    {
      "bufferView": 3,
      "byteOffset": 3072,
      "componentType": 5126,
      "count": 2104,
      "max": [
        1.0,
        1.0,
        0.9935837984085083,
        1.0
      ],
      "min": [
        -1.0,
        -0.8430107235908508,
        -1.0,
        -1.0
      ],
      "type": "VEC4"
    },
    {
      "bufferView": 1,
      "byteOffset": 14456,
      "componentType": 5126,
      "count": 2104,
      "max": [
        1.0,
        1.0
      ],
      "min": [
        0.0,
        0.0
      ],
      "type": "VEC2"
    },
    {
      "bufferView": 0,
      "byteOffset": 13752,
      "componentType": 5125,
      "count": 9303,
      "type": "SCALAR"
    },
    {
      "bufferView": 2,
      "byteOffset": 93864,
      "componentType": 5126,
      "count": 13251,
      "max": [
        5.5,
        13.0,
        10.472676277160645
      ],
      "min": [
        -5.500000953674316,
        -17.404590606689453,
        -5.499999046325684
      ],
      "type": "VEC3"
    },
    {
      "bufferView": 2,
      "byteOffset": 252876,
      "componentType": 5126,
      "count": 13251,
      "max": [
        1.0,
        1.0,
        1.0
      ],
      "min": [
        -1.0,
        -1.0,
        -1.0
      ],
      "type": "VEC3"
    },
    {
      "bufferView": 3,
      "byteOffset": 36736,
      "componentType": 5126,
      "count": 13251,
      "max": [
        1.0,
        1.0,
        1.0,
        1.0
      ],
      "min": [
        -1.0,
        -0.9466091990470886,
        -1.0,
        -1.0
      ],
      "type": "VEC4"
    },
    {
      "bufferView": 1,
      "byteOffset": 31288,
      "componentType": 5126,
      "count": 13251,
      "max": [
        1.0,
        1.0
      ],
      "min": [
        0.0,
        0.0
      ],
      "type": "VEC2"
    },
    {
      "bufferView": 0,
      "byteOffset": 50964,
      "componentType": 5125,
      "count": 18888,
      "type": "SCALAR"
    }
  ],
  "asset": {
    "extras": {
      "author": "Vulakrein (https://sketchfab.com/vulakrein)",
      "license": "CC-BY-4.0 (http://creativecommons.org/licenses/by/4.0/)",
      "source": "https://sketchfab.com/3d-models/security-camera-c22374e8095149b794e821c9ec0a796e",
      "title": "Security Camera"
    },
    "generator": "Sketchfab-15.53.0",
    "version": "2.0"
  },
  "bufferViews": [
    {
      "buffer": 0,
      "byteLength": 126516,
      "name": "floatBufferViews",
      "target": 34963
    },
    {
      "buffer": 0,
      "byteLength": 137296,
      "byteOffset": 126516,
      "byteStride": 8,
      "name": "floatBufferViews",
      "target": 34962
    },
    {
      "buffer": 0,
      "byteLength": 411888,
      "byteOffset": 263812,
      "byteStride": 12,
      "name": "floatBufferViews",
      "target": 34962
    },
    {
      "buffer": 0,
      "byteLength": 248752,
      "byteOffset": 675700,
      "byteStride": 16,
      "name": "floatBufferViews",
      "target": 34962
    }
  ],
  "buffers": [
    {
      "byteLength": 924452,
      "uri": "scene.bin"
    }
  ],
  "extensionsUsed": [
    "KHR_materials_specular"
  ],
  "images": [
    {
      "uri": "textures/Black_Plastic_baseColor.png"
    },
    {
      "uri": "textures/Black_Plastic_normal.png"
    },
    {
      "uri": "textures/Metal_baseColor.jpeg"
    },
    {
      "uri": "textures/Metal_metallicRoughness.png"
    },
    {
      "uri": "textures/Plastic_baseColor.png"
    },
    {
      "uri": "textures/Plastic_normal.png"
    }
  ],
  "materials": [
    {
      "doubleSided": true,
      "extensions": {
        "KHR_materials_specular": {
          "specularColorFactor": [
            1.0,
            1.0,
            1.0
          ],
          "specularFactor": 0.5588192699773954
        }
      },
      "name": "Black",
      "pbrMetallicRoughness": {
        "baseColorFactor": [
          0.0,
          0.0,
          0.0,
          1.0
        ],
        "metallicFactor": 0.8043849210097156,
        "roughnessFactor": 0.10746330682483618
      }
    },
    {
      "doubleSided": true,
      "name": "Black_Plastic",
      "normalTexture": {
        "index": 1
      },
      "pbrMetallicRoughness": {
        "baseColorTexture": {
          "index": 0
        },
        "metallicFactor": 0.0,
        "roughnessFactor": 0.8011823178082373
      }
    },
    {
      "doubleSided": true,
      "name": "Center",
      "pbrMetallicRoughness": {
        "baseColorFactor": [
          0.1025790847327427,
          0.0009108502238425349,
          0.0,
          1.0
        ],
        "metallicFactor": 0.0
      }
    },
    {
      "doubleSided": true,
      "extensions": {
        "KHR_materials_specular": {
          "specularColorFactor": [
            1.0,
            1.0,
            1.0
          ],
          "specularFactor": 0.48326060812129684
        }
      },
      "name": "Gray",
      "pbrMetallicRoughness": {
        "baseColorFactor": [
          0.082562,
          0.082562,
          0.082562,
          1.0
        ],
        "metallicFactor": 0.7477159246176417,
        "roughnessFactor": 0.12435696430482883
      }
    },
    {
      "doubleSided": true,
      "name": "Metal",
      "pbrMetallicRoughness": {
        "baseColorTexture": {
          "index": 2
        },
        "metallicRoughnessTexture": {
          "index": 3
        }
      }
    },
    {
      "doubleSided": true,
      "name": "Plastic",
      "normalTexture": {
        "index": 5
      },
      "pbrMetallicRoughness": {
        "baseColorTexture": {
          "index": 4
        },
        "metallicFactor": 0.0,
        "roughnessFactor": 0.7789523790803661
      }
    },
    {
      "doubleSided": true,
      "name": "White",
      "pbrMetallicRoughness": {
        "baseColorFactor": [
          0.0583908649577816,
          0.0583908649577816,
          0.0583908649577816,
          1.0
        ],
        "metallicFactor": 0.0,
        "roughnessFactor": 0.8777582541088441
      }
    }
  ],
  "meshes": [
    {
      "name": "Object_0",
      "primitives": [
        {
          "attributes": {
            "NORMAL": 1,
            "POSITION": 0,
            "TANGENT": 2,
            "TEXCOORD_0": 3
          },
          "indices": 4,
          "material": 1,
          "mode": 4
        }
      ]
    },
    {
      "name": "Object_1",
      "primitives": [
        {
          "attributes": {
            "NORMAL": 6,
            "POSITION": 5,
            "TEXCOORD_0": 7
          },
          "indices": 8,
          "material": 2,
          "mode": 4
        }
      ]
    },
    {
      "name": "Object_2",
      "primitives": [
        {
          "attributes": {
            "NORMAL": 10,
            "POSITION": 9,
            "TEXCOORD_0": 11
          },
          "indices": 12,
          "material": 3,
          "mode": 4
        }
      ]
    },
    {
      "name": "Object_3",
      "primitives": [
        {
          "attributes": {
            "NORMAL": 14,
            "POSITION": 13,
            "TEXCOORD_0": 15
          },
          "indices": 16,
          "material": 4,
          "mode": 4
        }
      ]
    },
    {
      "name": "Object_4",
      "primitives": [
        {
          "attributes": {
            "NORMAL": 18,
            "POSITION": 17,
            "TEXCOORD_0": 19
          },
          "indices": 20,
          "material": 6,
          "mode": 4
        }
      ]
    },
    {
      "name": "Object_5",
      "primitives": [
        {
          "attributes": {
            "NORMAL": 22,
            "POSITION": 21,
            "TEXCOORD_0": 23
          },
          "indices": 24,
          "material": 0,
          "mode": 4
        }
      ]
    },
    {
      "name": "Object_6",
      "primitives": [
        {
          "attributes": {
            "NORMAL": 26,
            "POSITION": 25,
            "TANGENT": 27,
            "TEXCOORD_0": 28
          },
          "indices": 29,
          "material": 5,
          "mode": 4
        }
      ]
    },
    {
      "name": "Object_7",
      "primitives": [
        {
          "attributes": {
            "NORMAL": 31,
            "POSITION": 30,
            "TANGENT": 32,
            "TEXCOORD_0": 33
          },
          "indices": 34,
          "material": 5,
          "mode": 4
        }
      ]
    }
  ],
  "nodes": [
    {
      "children": [
        1
      ],
      "matrix": [
        1.0,
        0.0,
        0.0,
        0.0,
        0.0,
        2.220446049250313e-16,
        -1.0,
        0.0,
        0.0,
        1.0,
        2.220446049250313e-16,
        0.0,
        0.0,
        0.0,
        0.0,
        1.0
      ],
      "name": "Sketchfab_model"
    },
    {
      "children": [
        2,
        3,
        4,
        5,
        6,
        7,
        8,
        9
      ],
      "name": "Security Camera.obj.cleaner.materialmerger.gles"
    },
    {
      "mesh": 0,
      "name": "Object_2"
    },
    {
      "mesh": 1,
      "name": "Object_3"
    },
    {
      "mesh": 2,
      "name": "Object_4"
    },
    {
      "mesh": 3,
      "name": "Object_5"
    },
    {
      "mesh": 4,
      "name": "Object_6"
    },
    {
      "mesh": 5,
      "name": "Object_7"
    },
    {
      "mesh": 6,
      "name": "Object_8"
    },
    {
      "mesh": 7,
      "name": "Object_9"
    }
  ],
  "samplers": [
    {
      "magFilter": 9729,
      "minFilter": 9987,
      "wrapS": 10497,
      "wrapT": 10497
    }
  ],
  "scene": 0,
  "scenes": [
    {
      "name": "Sketchfab_Scene",
      "nodes": [
        0
      ]
    }
  ],
  "textures": [
    {
      "sampler": 0,
      "source": 0
    },
    {
      "sampler": 0,
      "source": 1
    },
    {
      "sampler": 0,
      "source": 2
    },
    {
      "sampler": 0,
      "source": 3
    },
    {
      "sampler": 0,
      "source": 4
    },
    {
      "sampler": 0,
      "source": 5
    }
  ]
}
