<svg width="48" height="48" viewBox="0 0 48 48" fill="none" xmlns="http://www.w3.org/2000/svg">
<g filter="url(#filter0_d_0_1)">
<path d="M4 20C4 8.95431 12.9543 0 24 0V0C35.0457 0 44 8.95431 44 20V20C44 31.0457 35.0457 40 24 40V40C12.9543 40 4 31.0457 4 20V20Z" fill="#293A78" shape-rendering="crispEdges"/>
<path d="M28.5537 13.9331C28.5537 17.2098 26.1912 19.8661 23.2769 19.8661C20.3625 19.8661 18 17.2098 18 13.9331C18 10.6563 20.3625 8 23.2769 8C26.1912 8 28.5537 10.6563 28.5537 13.9331Z" fill="white"/>
<rect x="19.2664" y="19.8661" width="2.11075" height="10.6795" fill="#E75656"/>
<path d="M23.0658 20.8154L25.9733 21.0874L30 30.7964L27.0925 30.5245L23.0658 20.8154Z" fill="#131212"/>
</g>
<defs>
<filter id="filter0_d_0_1" x="0" y="0" width="48" height="48" filterUnits="userSpaceOnUse" color-interpolation-filters="sRGB">
<feFlood flood-opacity="0" result="BackgroundImageFix"/>
<feColorMatrix in="SourceAlpha" type="matrix" values="0 0 0 0 0 0 0 0 0 0 0 0 0 0 0 0 0 0 127 0" result="hardAlpha"/>
<feOffset dy="4"/>
<feGaussianBlur stdDeviation="2"/>
<feComposite in2="hardAlpha" operator="out"/>
<feColorMatrix type="matrix" values="0 0 0 0 0 0 0 0 0 0 0 0 0 0 0 0 0 0 0.25 0"/>
<feBlend mode="normal" in2="BackgroundImageFix" result="effect1_dropShadow_0_1"/>
<feBlend mode="normal" in="SourceGraphic" in2="effect1_dropShadow_0_1" result="shape"/>
</filter>
</defs>
</svg>
